<svg xmlns="http://www.w3.org/2000/svg" viewBox="0 12.699999809265137 52.45000076293945 31.950000762939453" data-asc="0.869" width="52.45000076293945" height="31.950000762939453"><defs/><g><g><g transform="translate(0, 0)"><path d="M42.60 15.60L33.25 44.15L32 44.15L22.35 23.95L15.75 44.15L14.50 44.15L0 13.75L0 12.70L9.10 12.70L17.15 30.40L20.50 20.10L17.50 13.75L17.50 12.70L26.60 12.70L34.65 30.40L39.50 15.60L34.05 15.60L34.05 12.70L45.90 12.70L45.90 15.60L42.60 15.60ZM44.15 40.35Q44.15 38.10 45.10 37.05Q46.05 36 48.30 36Q50.70 36 51.58 37.05Q52.45 38.10 52.45 40.35Q52.45 42.60 51.50 43.63Q50.55 44.65 48.30 44.65Q46.05 44.65 45.10 43.63Q44.15 42.60 44.15 40.35Z"/></g></g></g></svg>